<mxfile host="65bd71144e">
    <diagram name="TurnstileObject UML" id="turnstile-object-uml">
        <mxGraphModel dx="1359" dy="1603" grid="1" gridSize="10" guides="1" tooltips="1" connect="1" arrows="1" fold="1" page="1" pageScale="1" pageWidth="1400" pageHeight="900" math="0" shadow="0">
            <root>
                <mxCell id="0"/>
                <mxCell id="1" parent="0"/>
                <mxCell id="2" value="" style="rounded=0;whiteSpace=wrap;html=1;" vertex="1" parent="1">
                    <mxGeometry x="20" y="-240" width="860" height="650" as="geometry"/>
                </mxCell>
                <mxCell id="matrix-state-machine" value="&lt;&lt;abstract&gt;&gt;&#xa;MatrixBasedStateMachine&lt;STATE, SIGNAL&gt;&#xa;&#xa;# matrix: TransitionMatrix&lt;STATE, SIGNAL&gt;&#xa;&#xa;+ constructor(matrix: TransitionMatrix, startState?: STATE)&#xa;+ getMatrix(): TransitionMatrix&lt;STATE, SIGNAL&gt;&#xa;+ printTransitionMatrix(): void" style="swimlane;fontStyle=1;align=center;verticalAlign=top;childLayout=stackLayout;horizontal=1;startSize=40;horizontalStack=0;resizeParent=1;resizeParentMax=0;resizeLast=0;collapsible=1;marginBottom=0;fillColor=#fff2cc;strokeColor=#d6b656;" parent="1" vertex="1">
                    <mxGeometry x="450" y="180" width="400" height="120" as="geometry"/>
                </mxCell>
                <mxCell id="finite-state-machine" value="&lt;&lt;abstract&gt;&gt;&#xa;FiniteStateMachine&lt;STATE, SIGNAL&gt;&#xa;&#xa;+ sendSignal(signal: SIGNAL): STATE&#xa;+ getCurrentState(): STATE&#xa;+ getStates(): STATE[]&#xa;+ getSignals(): SIGNAL[]&#xa;+ getTransitions(): ITransition[]" style="swimlane;fontStyle=1;align=center;verticalAlign=top;childLayout=stackLayout;horizontal=1;startSize=40;horizontalStack=0;resizeParent=1;resizeParentMax=0;resizeLast=0;collapsible=1;marginBottom=0;fillColor=#f8cecc;strokeColor=#b85450;" parent="1" vertex="1">
                    <mxGeometry x="450" y="-20" width="400" height="120" as="geometry"/>
                </mxCell>
                <mxCell id="ifinite-state-machine" value="&lt;&lt;interface&gt;&gt;&#xa;IFiniteStateMachine&lt;STATE&gt;&#xa;&#xa;+ sendSignal(signal: SIGNAL): STATE&#xa;+ getCurrentState(): STATE" style="swimlane;fontStyle=1;align=center;verticalAlign=top;childLayout=stackLayout;horizontal=1;startSize=60;horizontalStack=0;resizeParent=1;resizeParentMax=0;resizeLast=0;collapsible=1;marginBottom=0;fillColor=#d5e8d4;strokeColor=#82b366;" parent="1" vertex="1">
                    <mxGeometry x="525" y="-160" width="250" height="80" as="geometry"/>
                </mxCell>
                <mxCell id="transition-matrix" value="&lt;&lt;class&gt;&gt;&#xa;TransitionMatrix&lt;STATE, SIGNAL&gt;&#xa;&#xa;- states: STATE[]&#xa;- signals: SIGNAL[]&#xa;- transitions: ITransition[]&#xa;&#xa;+ static fromArray(): TransitionMatrix&#xa;+ getStates(): STATE[]&#xa;+ getSignals(): SIGNAL[]&#xa;+ getTransitions(): ITransition[]&#xa;+ printMatrix(): void" style="swimlane;fontStyle=1;align=center;verticalAlign=top;childLayout=stackLayout;horizontal=1;startSize=45;horizontalStack=0;resizeParent=1;resizeParentMax=0;resizeLast=0;collapsible=1;marginBottom=0;fillColor=#e6f7ff;strokeColor=#1890ff;" parent="1" vertex="1">
                    <mxGeometry x="40" y="142.5" width="300" height="195" as="geometry"/>
                </mxCell>
                <mxCell id="inheritance2" value="" style="endArrow=block;endSize=16;endFill=0;html=1;" parent="1" source="matrix-state-machine" target="finite-state-machine" edge="1">
                    <mxGeometry width="160" relative="1" as="geometry">
                        <mxPoint x="650" y="170" as="sourcePoint"/>
                        <mxPoint x="650" y="110" as="targetPoint"/>
                    </mxGeometry>
                </mxCell>
                <mxCell id="implements1" value="" style="endArrow=block;endSize=16;endFill=0;html=1;dashed=1;exitX=0.5;exitY=0;exitDx=0;exitDy=0;entryX=0.5;entryY=1;entryDx=0;entryDy=0;" parent="1" source="finite-state-machine" target="ifinite-state-machine" edge="1">
                    <mxGeometry width="160" relative="1" as="geometry">
                        <mxPoint x="800" y="420" as="sourcePoint"/>
                        <mxPoint x="950" y="220" as="targetPoint"/>
                    </mxGeometry>
                </mxCell>
                <mxCell id="composition1" value="contains" style="endArrow=diamond;endSize=12;endFill=1;html=1;" parent="1" source="matrix-state-machine" target="transition-matrix" edge="1">
                    <mxGeometry y="-10" width="160" relative="1" as="geometry">
                        <mxPoint x="860" y="260" as="sourcePoint"/>
                        <mxPoint x="940" y="560" as="targetPoint"/>
                        <mxPoint x="1" as="offset"/>
                    </mxGeometry>
                </mxCell>
                <mxCell id="label2" value="extends" style="text;strokeColor=none;align=center;fillColor=none;html=1;verticalAlign=middle;whiteSpace=wrap;rounded=0;" parent="1" vertex="1">
                    <mxGeometry x="660" y="130" width="60" height="30" as="geometry"/>
                </mxCell>
                <mxCell id="label3" value="implements" style="text;strokeColor=none;align=center;fillColor=none;html=1;verticalAlign=middle;whiteSpace=wrap;rounded=0;" parent="1" vertex="1">
                    <mxGeometry x="660" y="-60" width="80" height="30" as="geometry"/>
                </mxCell>
                <mxCell id="title" value="Finite Stae Machine - UML Class Diagram" style="text;strokeColor=none;align=center;fillColor=none;html=1;verticalAlign=middle;whiteSpace=wrap;rounded=0;fontSize=16;fontStyle=1;" parent="1" vertex="1">
                    <mxGeometry x="230" y="-210" width="400" height="30" as="geometry"/>
                </mxCell>
            </root>
        </mxGraphModel>
    </diagram>
</mxfile>